<?xml version="1.0" encoding="UTF-8" standalone="no"?>
<svg
   width="1500"
   height="1500"
   version="1.1"
   id="svg1"
   xmlns="http://www.w3.org/2000/svg"
   xmlns:svg="http://www.w3.org/2000/svg">
  <defs
     id="defs1" />
  <g
     id="Layer_1">
    <title
       id="title1">Layer 1</title>
    <ellipse
       style="display:none;fill:#f0fdff;fill-opacity:1;stroke:none;stroke-width:1.102;stroke-dasharray:none;stroke-opacity:1"
       id="path2"
       cx="752.03076"
       cy="751.47748"
       rx="747.19446"
       ry="748.35596" />
    <rect
       style="display:none;fill:none;fill-opacity:1;stroke:#f4e738;stroke-width:15.2677;stroke-dasharray:none;stroke-opacity:1"
       id="rect5"
       width="698.87903"
       height="627.46692"
       x="438.96082"
       y="397.44061"
       ry="132.03894"
       rx="0" />
    <g
       id="svg_2"
       stroke="null" />
    <g
       id="svg_5"
       stroke="null">
      <path
         transform="rotate(48.4813,430.704,1032.21)"
         id="svg_6"
         fill="#f17f21"
         d="m 554.52636,985.3517 c 0,87.408 -123.8188,205.1241 -123.8188,205.1241 0,0 -123.82502,-117.7161 -123.82502,-205.1241 0,-87.40358 55.43884,-111.40325 123.82502,-111.40325 68.38085,0 123.8188,24.00056 123.8188,111.40325 z"
         stroke="null" />
      <path
         transform="rotate(48.4813,454.518,1011.13)"
         id="svg_7"
         fill="#edb420"
         d="m 539.97822,978.79369 c 0,60.32481 -85.46185,141.57011 -85.46185,141.57011 0,0 -85.45918,-81.2453 -85.45918,-141.57011 0,-60.33099 38.26279,-76.8949 85.45918,-76.8949 47.19995,0.002 85.46185,16.5639 85.46185,76.8949 z"
         stroke="null" />
      <path
         transform="rotate(48.4813,486.335,982.968)"
         id="svg_8"
         fill="#f7cb6d"
         d="m 535.83678,964.23605 c 0,34.93922 -49.50265,82.00305 -49.50265,82.00305 0,0 -49.49998,-47.06383 -49.49998,-82.00305 0,-34.94722 22.1599,-44.53998 49.49998,-44.53998 27.33741,0 49.50265,9.59276 49.50265,44.53998 z"
         stroke="null" />
      <g
         id="svg_9"
         stroke="null">
        <g
           id="svg_10"
           stroke="null">
          <path
             transform="rotate(48.4813,467.251,751.087)"
             id="svg_11"
             fill="#ff3e00"
             d="m 552.50351,605.19657 c 0,0 -170.50437,89.50816 -170.50437,283.45465 0,0 10.65974,21.31587 27.70965,-4.26513 17.04813,-25.57478 31.96946,-95.90363 140.66171,-95.90363 z"
             stroke="null" />
          <path
             transform="rotate(48.4813,713.625,1029.38)"
             id="svg_12"
             fill="#c12e01"
             d="m 628.37302,883.48785 c 0,0 170.50349,89.50816 170.50349,283.45465 0,0 -10.65886,21.3159 -27.70698,-4.2651 -17.05435,-25.5748 -31.96679,-95.9037 -140.66349,-95.9037 l -2.13301,-183.28585 z"
             stroke="null" />
        </g>
        <g
           id="svg_13"
           stroke="null">
          <path
             transform="rotate(48.4813,839.198,796.419)"
             id="svg_14"
             fill="#1c3f57"
             d="m 933.84993,710.51802 c 0,-79.40635 -13.41285,-154.16202 -33.39443,-219.52748 H 744.54642 v 66.33735 c 57.67935,0 104.44132,46.76094 104.44132,104.43744 0,57.6765 -46.76375,104.43833 -104.44132,104.43833 v 335.64364 h 102.03291 c 52.48585,-82.5699 87.2706,-226.98282 87.2706,-391.32927 z"
             stroke="null" />
          <path
             transform="rotate(48.4813,713.715,654.68)"
             id="svg_15"
             fill="#325e78"
             d="m 703.92879,520.02605 c 0,-57.6765 46.7602,-104.43744 104.43688,-104.43744 V 349.25126 H 652.46014 c -19.9798,65.36635 -33.39621,140.12113 -33.39621,219.52748 0,164.34645 34.78475,308.75936 87.27238,391.32924 H 808.36655 V 624.46437 c -57.67757,0 -104.43777,-46.76094 -104.43777,-104.43833 z"
             stroke="null" />
          <path
             transform="rotate(48.4813,500.706,899.318)"
             id="svg_16"
             fill="#e5b634"
             d="m 452.80957,883.41367 c -2.64028,0 -4.77952,2.13745 -4.77952,4.77595 v 22.2691 c 0,2.63406 2.13923,4.76529 4.77952,4.76529 H 553.38109 V 883.41278 H 452.80957 Z"
             stroke="null" />
          <path
             transform="rotate(48.4813,570.509,978.166)"
             id="svg_17"
             fill="#cca12c"
             d="M 618.36604,962.26022 H 517.8807 v 31.81123 h 100.48534 c 2.63406,0 4.77063,-2.13123 4.77063,-4.76529 v -22.2691 c 0,-2.63939 -2.13657,-4.77684 -4.77063,-4.77684 z"
             stroke="null" />
          <path
             transform="rotate(48.4813,911.89,675.39)"
             id="svg_18"
             fill="#cca12c"
             d="m 931.23049,675.38915 c 0,39.52061 -32.03786,71.56015 -71.56127,71.56015 v 32.87817 c 57.68024,0 104.44132,-46.76094 104.44132,-104.43833 0,-57.67739 -46.76375,-104.43744 -104.44132,-104.43744 v 32.88439 c 39.52429,0 71.56127,32.03243 71.56127,71.55305 z"
             stroke="null" />
          <path
             transform="rotate(48.4813,842.662,597.193)"
             id="svg_19"
             fill="#e5b634"
             d="m 790.44357,597.19282 c 0,57.6765 46.7602,104.43833 104.43688,104.43833 v -32.87817 c -39.51541,0 -71.55683,-32.03865 -71.55683,-71.56015 0,-39.5215 32.04142,-71.55482 71.55683,-71.55482 v -32.88262 c -57.67668,0 -104.43688,46.76094 -104.43688,104.43744 z"
             stroke="null" />
          <path
             transform="rotate(48.4813,900.99,663.082)"
             id="svg_20"
             fill="#a7dde3"
             d="m 936.77061,663.07881 c 0,-39.51973 -32.03786,-71.55305 -71.56127,-71.55305 v 143.1132 c 39.52429,0 71.56127,-32.03865 71.56127,-71.56015 z"
             stroke="null" />
          <path
             transform="rotate(48.4813,853.556,609.504)"
             id="svg_21"
             fill="#c4faff"
             d="m 817.77744,609.50009 c 0,39.52061 32.04142,71.56015 71.55772,71.56015 v -143.1132 c -39.5163,0 -71.55772,32.03243 -71.55772,71.55305 z"
             stroke="null" />
        </g>
      </g>
      <g
         id="svg_22"
         stroke="null">
        <path
           transform="rotate(48.4813,1148.53,500.264)"
           id="svg_23"
           fill="#c12e01"
           d="m 1070.5725,377.77261 v 244.98233 h 155.91 c -44.581,-145.82988 -121.8572,-244.98233 -155.91,-244.98233 z"
           stroke="null" />
        <path
           transform="rotate(48.4813,1045.18,383.529)"
           id="svg_24"
           fill="#ff3e00"
           d="m 1123.1347,261.03808 c -34.0474,0 -111.3264,99.15156 -155.90645,244.98233 h 155.90645 z"
           stroke="null" />
        <path
           transform="rotate(48.4813,579.275,917.646)"
           id="svg_25"
           fill="#c12e01"
           d="m 572.71881,798.29527 c -0.52059,-0.16702 -1.07495,-0.2603 -1.64529,-0.2603 h -0.14481 -4.78129 v 239.22113 h 5.3774 0.14303 c 3.00274,0 5.43603,-2.4332 5.43603,-5.4351 v -7.2616 l 0.20877,-10.4945 15.09012,-192.36606 c 0.003,-19.49912 -16.36496,-22.56582 -19.68397,-23.40357 z"
           stroke="null" />
        <path
           transform="rotate(48.4813,561.872,897.989)"
           id="svg_26"
           fill="#ff3e00"
           d="m 569.62501,778.37811 h -0.14392 c -0.57123,0 -1.12381,0.0924 -1.63818,0.2603 -0.95768,0.23898 -2.02552,0.6574 -3.06671,1.27128 -5.94952,1.93046 -16.03004,7.10618 -16.03004,22.41746 l 15.10612,192.54817 0.19189,9.74378 v 7.2617 c 0,2.284 1.41165,4.2331 3.40074,5.0353 0.77734,0.438 1.67816,0.6841 2.63406,0.6841 h 0.13948 4.78041 V 778.37812 h -5.37385 v 0 z"
           stroke="null" />
      </g>
    </g>
    <path
       transform="matrix(0.005,0,0,0.005,297.19079,271.00658)"
       id="svg_33"
       d="M 1.00035,116.97758 149.99998,8.57228 298.99996,116.97758 242.08729,292.38178 H 57.91319 Z"
       opacity="0"
       stroke-width="5"
       stroke="null"
       fill="url(#svg_32)" />
    <path
       transform="matrix(0.005,0,0,0.005,1140.3224,1087.9539)"
       id="svg_34"
       d="M 1.00035,116.97758 149.99998,8.57228 298.99996,116.97758 242.08729,292.38178 H 57.91319 Z"
       opacity="0"
       stroke-width="5"
       stroke="null"
       fill="url(#svg_32)" />
    <path
       transform="matrix(0.005,0,0,0.005,328.61184,386.21711)"
       id="svg_35"
       d="M 1.00035,116.97758 149.99998,8.57228 298.99996,116.97758 242.08729,292.38178 H 57.91319 Z"
       opacity="0"
       stroke-width="5"
       stroke="null"
       fill="url(#svg_32)" />
    <path
       id="svg_40"
       d="m 177.63158,340.78947 c 388.70835,0 259.62097,259.62097 301.31579,206.57895 C 480.26316,548.68421 301.31579,443.42105 300,442.10526"
       opacity="0"
       stroke-width="5"
       stroke="null"
       fill="none" />
    <path
       d="m 943.42108,311.8421 c -2.63159,0 -21.1153,-0.24643 -52.63159,7.89474 -39.55469,10.21765 -86.77466,26.56097 -134.21057,39.47369 -78.8374,21.46066 -130.94946,36.73349 -178.94733,47.36841 -31.25653,6.92551 -68.67172,13.65723 -100,18.42105 -23.98627,3.64737 -39.31046,9.20602 -55.26318,10.52631 -10.49045,0.86819 -21.05261,0 -23.6842,0 -5.26315,0 -7.89474,0 -7.89474,0 -2.63156,0 0,0 0,0 v 0"
       id="svg_39"
       stroke-width="5"
       stroke="null"
       fill="none" />
    <ellipse
       style="display:none;fill:#000000;fill-opacity:1;stroke:#f4e738;stroke-width:15;stroke-dasharray:none;stroke-opacity:1"
       id="path5"
       cx="435.48926"
       cy="389.80676"
       rx="37.149815"
       ry="37.79353" />
  </g>
</svg>
